<svg xmlns="http://www.w3.org/2000/svg" width="760" height="176" class="svgbob"><style>.svgbob line, .svgbob path, .svgbob circle, .svgbob rect, .svgbob polygon {
    stroke: black;
    stroke-width: 2;
    stroke-opacity: 1;
    fill-opacity: 1;
    stroke-linecap: round;
    stroke-linejoin: miter;
}
.svgbob text {
    white-space: pre;
    fill: black;
    font-family: Iosevka Fixed, monospace;
    font-size: 14px;
}
.svgbob rect.backdrop {
    stroke: none;
    fill: white;
}
.svgbob .broken {
    stroke-dasharray: 8;
}
.svgbob .filled {
    fill: black;
}
.svgbob .bg_filled {
    fill: white;
    stroke-width: 1;
}
.svgbob .nofill {
    fill: white;
}
.svgbob .end_marked_arrow {
    marker-end: url(#arrow);
}
.svgbob .start_marked_arrow {
    marker-start: url(#arrow);
}
.svgbob .end_marked_diamond {
    marker-end: url(#diamond);
}
.svgbob .start_marked_diamond {
    marker-start: url(#diamond);
}
.svgbob .end_marked_circle {
    marker-end: url(#circle);
}
.svgbob .start_marked_circle {
    marker-start: url(#circle);
}
.svgbob .end_marked_open_circle {
    marker-end: url(#open_circle);
}
.svgbob .start_marked_open_circle {
    marker-start: url(#open_circle);
}
.svgbob .end_marked_big_open_circle {
    marker-end: url(#big_open_circle);
}
.svgbob .start_marked_big_open_circle {
    marker-start: url(#big_open_circle);
}<!--separator--></style><defs><marker id="arrow" viewBox="-2 -2 8 8" refX="4" refY="2" markerWidth="7" markerHeight="7" orient="auto-start-reverse"><polygon points="0,0 0,4 4,2 0,0"></polygon></marker><marker id="diamond" viewBox="-2 -2 8 8" refX="4" refY="2" markerWidth="7" markerHeight="7" orient="auto-start-reverse"><polygon points="0,2 2,0 4,2 2,4 0,2"></polygon></marker><marker id="circle" viewBox="0 0 8 8" refX="4" refY="4" markerWidth="7" markerHeight="7" orient="auto-start-reverse"><circle cx="4" cy="4" r="2" class="filled"></circle></marker><marker id="open_circle" viewBox="0 0 8 8" refX="4" refY="4" markerWidth="7" markerHeight="7" orient="auto-start-reverse"><circle cx="4" cy="4" r="2" class="bg_filled"></circle></marker><marker id="big_open_circle" viewBox="0 0 8 8" refX="4" refY="4" markerWidth="7" markerHeight="7" orient="auto-start-reverse"><circle cx="4" cy="4" r="3" class="bg_filled"></circle></marker></defs><rect class="backdrop" x="0" y="0" width="760" height="176"></rect><rect x="8" y="0" width="8" height="16" class="solid filled" rx="0"></rect><rect x="16" y="0" width="8" height="16" class="solid filled" rx="0"></rect><rect x="24" y="0" width="8" height="16" class="solid filled" rx="0"></rect><rect x="32" y="8" width="8" height="8" class="solid filled" rx="0"></rect><rect x="48" y="8" width="8" height="8" class="solid filled" rx="0"></rect><rect x="56" y="0" width="8" height="16" class="solid filled" rx="0"></rect><rect x="64" y="0" width="8" height="16" class="solid filled" rx="0"></rect><rect x="72" y="0" width="8" height="16" class="solid filled" rx="0"></rect><rect x="104" y="0" width="8" height="16" class="solid filled" rx="0"></rect><rect x="112" y="0" width="8" height="16" class="solid filled" rx="0"></rect><rect x="120" y="0" width="8" height="16" class="solid filled" rx="0"></rect><rect x="128" y="0" width="8" height="16" class="solid filled" rx="0"></rect><rect x="136" y="0" width="8" height="16" class="solid filled" rx="0"></rect><rect x="168" y="8" width="8" height="8" class="solid filled" rx="0"></rect><rect x="176" y="0" width="8" height="16" class="solid filled" rx="0"></rect><rect x="184" y="0" width="8" height="16" class="solid filled" rx="0"></rect><rect x="192" y="0" width="8" height="16" class="solid filled" rx="0"></rect><rect x="200" y="0" width="8" height="16" class="solid filled" rx="0"></rect><rect x="208" y="8" width="8" height="8" class="solid filled" rx="0"></rect><rect x="240" y="0" width="8" height="16" class="solid filled" rx="0"></rect><rect x="248" y="0" width="8" height="16" class="solid filled" rx="0"></rect><text x="258" y="12" >░</text><rect x="272" y="0" width="8" height="16" class="solid filled" rx="0"></rect><rect x="280" y="0" width="8" height="16" class="solid filled" rx="0"></rect><rect x="304" y="8" width="8" height="8" class="solid filled" rx="0"></rect><rect x="312" y="8" width="8" height="8" class="solid filled" rx="0"></rect><rect x="320" y="8" width="8" height="8" class="solid filled" rx="0"></rect><rect x="8" y="16" width="8" height="16" class="solid filled" rx="0"></rect><rect x="16" y="16" width="8" height="16" class="solid filled" rx="0"></rect><rect x="40" y="16" width="8" height="16" class="solid filled" rx="0"></rect><rect x="64" y="16" width="8" height="16" class="solid filled" rx="0"></rect><rect x="72" y="16" width="8" height="16" class="solid filled" rx="0"></rect><rect x="96" y="16" width="8" height="16" class="solid filled" rx="0"></rect><rect x="104" y="16" width="8" height="16" class="solid filled" rx="0"></rect><rect x="136" y="16" width="8" height="16" class="solid filled" rx="0"></rect><rect x="144" y="16" width="8" height="16" class="solid filled" rx="0"></rect><rect x="168" y="16" width="8" height="16" class="solid filled" rx="0"></rect><rect x="176" y="16" width="8" height="16" class="solid filled" rx="0"></rect><rect x="208" y="16" width="8" height="16" class="solid filled" rx="0"></rect><text x="234" y="28" >▓░</text><rect x="240" y="16" width="8" height="16" class="solid filled" rx="0"></rect><rect x="248" y="16" width="8" height="16" class="solid filled" rx="0"></rect><rect x="272" y="16" width="8" height="16" class="solid filled" rx="0"></rect><rect x="280" y="16" width="8" height="16" class="solid filled" rx="0"></rect><rect x="304" y="16" width="8" height="16" class="solid filled" rx="0"></rect><rect x="312" y="16" width="8" height="16" class="solid filled" rx="0"></rect><rect x="320" y="16" width="8" height="16" class="solid filled" rx="0"></rect><rect x="328" y="16" width="8" height="16" class="solid filled" rx="0"></rect><rect x="336" y="24" width="8" height="8" class="solid filled" rx="0"></rect><text x="2" y="44" >▓</text><rect x="8" y="32" width="8" height="16" class="solid filled" rx="0"></rect><rect x="16" y="32" width="8" height="16" class="solid filled" rx="0"></rect><rect x="64" y="32" width="8" height="16" class="solid filled" rx="0"></rect><rect x="72" y="32" width="8" height="16" class="solid filled" rx="0"></rect><rect x="96" y="32" width="8" height="16" class="solid filled" rx="0"></rect><rect x="104" y="32" width="8" height="16" class="solid filled" rx="0"></rect><rect x="136" y="32" width="8" height="16" class="solid filled" rx="0"></rect><rect x="144" y="32" width="8" height="16" class="solid filled" rx="0"></rect><rect x="176" y="32" width="8" height="16" class="solid filled" rx="0"></rect><rect x="216" y="40" width="8" height="8" class="solid filled" rx="0"></rect><rect x="240" y="32" width="8" height="16" class="solid filled" rx="0"></rect><rect x="248" y="32" width="8" height="16" class="solid filled" rx="0"></rect><rect x="272" y="32" width="8" height="16" class="solid filled" rx="0"></rect><rect x="280" y="32" width="8" height="16" class="solid filled" rx="0"></rect><rect x="304" y="32" width="8" height="16" class="solid filled" rx="0"></rect><rect x="312" y="32" width="8" height="16" class="solid filled" rx="0"></rect><text x="338" y="44" >▀</text><rect x="344" y="32" width="8" height="16" class="solid filled" rx="0"></rect><rect x="352" y="40" width="8" height="8" class="solid filled" rx="0"></rect><text x="2" y="60" >▒</text><rect x="8" y="48" width="8" height="16" class="solid filled" rx="0"></rect><rect x="16" y="48" width="8" height="16" class="solid filled" rx="0"></rect><text x="58" y="60" >▒</text><rect x="64" y="48" width="8" height="16" class="solid filled" rx="0"></rect><rect x="72" y="48" width="8" height="16" class="solid filled" rx="0"></rect><text x="90" y="60" >▒</text><rect x="96" y="48" width="8" height="16" class="solid filled" rx="0"></rect><rect x="104" y="48" width="8" height="16" class="solid filled" rx="0"></rect><rect x="136" y="48" width="8" height="16" class="solid filled" rx="0"></rect><rect x="144" y="48" width="8" height="16" class="solid filled" rx="0"></rect><rect x="184" y="56" width="8" height="8" class="solid filled" rx="0"></rect><rect x="200" y="56" width="8" height="8" class="solid filled" rx="0"></rect><rect x="208" y="48" width="8" height="16" class="solid filled" rx="0"></rect><rect x="216" y="48" width="8" height="16" class="solid filled" rx="0"></rect><rect x="248" y="48" width="8" height="16" class="solid filled" rx="0"></rect><rect x="272" y="48" width="8" height="16" class="solid filled" rx="0"></rect><rect x="280" y="48" width="8" height="16" class="solid filled" rx="0"></rect><text x="298" y="60" >░</text><rect x="304" y="48" width="8" height="16" class="solid filled" rx="0"></rect><rect x="312" y="48" width="8" height="16" class="solid filled" rx="0"></rect><rect x="320" y="56" width="8" height="8" class="solid filled" rx="0"></rect><rect x="328" y="56" width="8" height="8" class="solid filled" rx="0"></rect><rect x="336" y="56" width="8" height="8" class="solid filled" rx="0"></rect><rect x="344" y="56" width="8" height="8" class="solid filled" rx="0"></rect><rect x="352" y="48" width="8" height="16" class="solid filled" rx="0"></rect><rect x="360" y="48" width="8" height="16" class="solid filled" rx="0"></rect><text x="2" y="76" >▒▒</text><rect x="8" y="64" width="8" height="16" class="solid filled" rx="0"></rect><rect x="16" y="64" width="8" height="16" class="solid filled" rx="0"></rect><rect x="64" y="64" width="8" height="16" class="solid filled" rx="0"></rect><rect x="72" y="64" width="8" height="16" class="solid filled" rx="0"></rect><rect x="104" y="64" width="8" height="16" class="solid filled" rx="0"></rect><rect x="112" y="64" width="8" height="16" class="solid filled" rx="0"></rect><rect x="120" y="64" width="8" height="16" class="solid filled" rx="0"></rect><rect x="128" y="64" width="8" height="16" class="solid filled" rx="0"></rect><rect x="184" y="64" width="8" height="16" class="solid filled" rx="0"></rect><rect x="192" y="64" width="8" height="16" class="solid filled" rx="0"></rect><rect x="200" y="64" width="8" height="16" class="solid filled" rx="0"></rect><rect x="248" y="64" width="8" height="16" class="solid filled" rx="0"></rect><rect x="272" y="64" width="8" height="16" class="solid filled" rx="0"></rect><rect x="280" y="64" width="8" height="16" class="solid filled" rx="0"></rect><rect x="312" y="64" width="8" height="16" class="solid filled" rx="0"></rect><text x="346" y="76" >▓▒</text><rect x="352" y="64" width="8" height="16" class="solid filled" rx="0"></rect><rect x="360" y="64" width="8" height="16" class="solid filled" rx="0"></rect><rect x="360" y="80" width="8" height="16" class="solid filled" rx="0"></rect><text x="2" y="108" >░░</text><text x="178" y="108" >░▒</text><text x="2" y="124" >░</text><text x="346" y="124" >▒</text><text x="242" y="140" >░░░</text><text x="346" y="140" >░</text><rect x="400" y="8" width="8" height="8" class="solid filled" rx="0"></rect><rect x="408" y="8" width="8" height="8" class="solid filled" rx="0"></rect><rect x="416" y="8" width="8" height="8" class="solid filled" rx="0"></rect><rect x="424" y="0" width="8" height="16" class="solid filled" rx="0"></rect><rect x="432" y="0" width="8" height="16" class="solid filled" rx="0"></rect><rect x="440" y="0" width="8" height="16" class="solid filled" rx="0"></rect><rect x="448" y="0" width="8" height="16" class="solid filled" rx="0"></rect><rect x="456" y="0" width="8" height="16" class="solid filled" rx="0"></rect><rect x="488" y="0" width="8" height="16" class="solid filled" rx="0"></rect><rect x="496" y="0" width="8" height="16" class="solid filled" rx="0"></rect><rect x="504" y="0" width="8" height="16" class="solid filled" rx="0"></rect><rect x="512" y="0" width="8" height="16" class="solid filled" rx="0"></rect><rect x="520" y="0" width="8" height="16" class="solid filled" rx="0"></rect><text x="554" y="12" >▒</text><rect x="560" y="0" width="8" height="16" class="solid filled" rx="0"></rect><rect x="568" y="0" width="8" height="16" class="solid filled" rx="0"></rect><rect x="576" y="0" width="8" height="16" class="solid filled" rx="0"></rect><rect x="584" y="0" width="8" height="16" class="solid filled" rx="0"></rect><rect x="592" y="0" width="8" height="16" class="solid filled" rx="0"></rect><rect x="624" y="0" width="8" height="16" class="solid filled" rx="0"></rect><rect x="632" y="0" width="8" height="16" class="solid filled" rx="0"></rect><text x="642" y="12" >▓</text><rect x="696" y="0" width="8" height="16" class="solid filled" rx="0"></rect><rect x="704" y="0" width="8" height="16" class="solid filled" rx="0"></rect><rect x="712" y="0" width="8" height="16" class="solid filled" rx="0"></rect><rect x="720" y="0" width="8" height="16" class="solid filled" rx="0"></rect><rect x="728" y="0" width="8" height="16" class="solid filled" rx="0"></rect><rect x="736" y="0" width="8" height="16" class="solid filled" rx="0"></rect><text x="402" y="28" >▓</text><rect x="424" y="16" width="8" height="16" class="solid filled" rx="0"></rect><rect x="432" y="16" width="8" height="16" class="solid filled" rx="0"></rect><rect x="480" y="16" width="8" height="16" class="solid filled" rx="0"></rect><rect x="488" y="16" width="8" height="16" class="solid filled" rx="0"></rect><rect x="520" y="16" width="8" height="16" class="solid filled" rx="0"></rect><rect x="528" y="16" width="8" height="16" class="solid filled" rx="0"></rect><rect x="552" y="16" width="8" height="16" class="solid filled" rx="0"></rect><rect x="560" y="16" width="8" height="16" class="solid filled" rx="0"></rect><rect x="592" y="16" width="8" height="16" class="solid filled" rx="0"></rect><rect x="600" y="16" width="8" height="16" class="solid filled" rx="0"></rect><rect x="624" y="16" width="8" height="16" class="solid filled" rx="0"></rect><rect x="632" y="16" width="8" height="16" class="solid filled" rx="0"></rect><text x="682" y="28" >▒</text><rect x="688" y="16" width="8" height="16" class="solid filled" rx="0"></rect><rect x="696" y="16" width="8" height="16" class="solid filled" rx="0"></rect><text x="738" y="28" >▒</text><rect x="424" y="32" width="8" height="16" class="solid filled" rx="0"></rect><rect x="432" y="32" width="8" height="16" class="solid filled" rx="0"></rect><rect x="480" y="32" width="8" height="16" class="solid filled" rx="0"></rect><rect x="488" y="32" width="8" height="16" class="solid filled" rx="0"></rect><rect x="520" y="32" width="8" height="16" class="solid filled" rx="0"></rect><rect x="528" y="32" width="8" height="16" class="solid filled" rx="0"></rect><rect x="552" y="32" width="8" height="16" class="solid filled" rx="0"></rect><rect x="560" y="32" width="8" height="16" class="solid filled" rx="0"></rect><rect x="592" y="32" width="8" height="16" class="solid filled" rx="0"></rect><rect x="600" y="32" width="8" height="16" class="solid filled" rx="0"></rect><rect x="624" y="32" width="8" height="16" class="solid filled" rx="0"></rect><rect x="632" y="32" width="8" height="16" class="solid filled" rx="0"></rect><rect x="704" y="32" width="8" height="16" class="solid filled" rx="0"></rect><rect x="712" y="32" width="8" height="16" class="solid filled" rx="0"></rect><rect x="720" y="40" width="8" height="8" class="solid filled" rx="0"></rect><rect x="424" y="48" width="8" height="16" class="solid filled" rx="0"></rect><rect x="432" y="48" width="8" height="16" class="solid filled" rx="0"></rect><rect x="480" y="48" width="8" height="16" class="solid filled" rx="0"></rect><rect x="488" y="48" width="8" height="16" class="solid filled" rx="0"></rect><rect x="520" y="48" width="8" height="16" class="solid filled" rx="0"></rect><rect x="528" y="48" width="8" height="16" class="solid filled" rx="0"></rect><rect x="552" y="48" width="8" height="16" class="solid filled" rx="0"></rect><rect x="560" y="48" width="8" height="16" class="solid filled" rx="0"></rect><rect x="592" y="48" width="8" height="16" class="solid filled" rx="0"></rect><rect x="600" y="48" width="8" height="16" class="solid filled" rx="0"></rect><rect x="624" y="48" width="8" height="16" class="solid filled" rx="0"></rect><rect x="632" y="48" width="8" height="16" class="solid filled" rx="0"></rect><text x="698" y="60" >▒</text><rect x="728" y="48" width="8" height="16" class="solid filled" rx="0"></rect><rect x="736" y="48" width="8" height="16" class="solid filled" rx="0"></rect><text x="746" y="60" >▒</text><rect x="424" y="64" width="8" height="16" class="solid filled" rx="0"></rect><rect x="432" y="64" width="8" height="16" class="solid filled" rx="0"></rect><rect x="488" y="64" width="8" height="16" class="solid filled" rx="0"></rect><rect x="496" y="64" width="8" height="16" class="solid filled" rx="0"></rect><rect x="504" y="64" width="8" height="16" class="solid filled" rx="0"></rect><rect x="512" y="64" width="8" height="16" class="solid filled" rx="0"></rect><rect x="560" y="64" width="8" height="16" class="solid filled" rx="0"></rect><rect x="568" y="64" width="8" height="16" class="solid filled" rx="0"></rect><rect x="576" y="64" width="8" height="16" class="solid filled" rx="0"></rect><rect x="584" y="64" width="8" height="16" class="solid filled" rx="0"></rect><rect x="624" y="64" width="8" height="16" class="solid filled" rx="0"></rect><rect x="632" y="64" width="8" height="16" class="solid filled" rx="0"></rect><rect x="640" y="64" width="8" height="16" class="solid filled" rx="0"></rect><rect x="648" y="64" width="8" height="16" class="solid filled" rx="0"></rect><rect x="656" y="64" width="8" height="16" class="solid filled" rx="0"></rect><rect x="664" y="64" width="8" height="16" class="solid filled" rx="0"></rect><rect x="688" y="64" width="8" height="16" class="solid filled" rx="0"></rect><rect x="696" y="64" width="8" height="16" class="solid filled" rx="0"></rect><rect x="704" y="64" width="8" height="16" class="solid filled" rx="0"></rect><rect x="712" y="64" width="8" height="16" class="solid filled" rx="0"></rect><rect x="720" y="64" width="8" height="16" class="solid filled" rx="0"></rect><rect x="728" y="64" width="8" height="16" class="solid filled" rx="0"></rect><text x="434" y="108" >░</text><text x="682" y="124" >░░░</text><text x="650" y="140" >░░</text><text x="730" y="140" >░</text><text x="58" y="124" >░</text><text x="58" y="140" >░</text><text x="162" y="124" >░</text><text x="162" y="140" >░</text><text x="162" y="156" >░</text><text x="418" y="124" >░</text><text x="474" y="124" >░</text><text x="546" y="124" >░</text><text x="178" y="140" >░</text><text x="370" y="140" >░</text><g><text x="82" y="12">▓</text><text x="98" y="12">▒</text></g><g><text x="2" y="28">▓▒▀</text><text x="34" y="28">▀</text></g><g><text x="82" y="28">▒</text><text x="90" y="28">▒▒</text></g><g><text x="154" y="28">▒</text><text x="162" y="28">▒▀</text><text x="202" y="28">▀</text></g><g><text x="290" y="28">▒</text><text x="298" y="28">▒</text></g><g><text x="58" y="44">▓░</text><text x="90" y="44">▒░</text></g><g><text x="154" y="44">▒</text><text x="162" y="44">▒</text><text x="170" y="44">▓</text></g><g><text x="234" y="44">▒▀</text><text x="266" y="44">▀░</text><text x="298" y="44">▒</text></g><g><text x="154" y="60">░▓</text><text x="162" y="60">▒</text><text x="170" y="60">▓</text></g><g><text x="226" y="60">▒</text><text x="234" y="60">░</text><text x="242" y="60">▓░</text></g><g><text x="58" y="76">░▒</text><text x="90" y="76">░</text></g><g><text x="138" y="76">▓▒</text><text x="146" y="76">▒</text><text x="154" y="76">░▓</text></g><g><text x="210" y="76">▀░▒</text><text x="226" y="76">░</text><text x="242" y="76">▓░▓</text><text x="306" y="76">▓</text></g><g><text x="2" y="92">░░</text><text x="18" y="92">▒</text></g><g><text x="58" y="92">░░▒░</text><text x="90" y="92">░░▒░▒</text><text x="122" y="92">▒░</text><text x="178" y="92">░▒░</text><text x="242" y="92">▒░▒▒</text><text x="258" y="92">░░▒</text><text x="274" y="92">▒</text></g><g><text x="346" y="92">▓░</text><text x="354" y="92">▒</text></g><g><text x="82" y="108">░░</text><text x="122" y="108">▒░</text><text x="138" y="108">▒</text></g><g><text x="242" y="108">▒▒░▒</text><text x="258" y="108">░</text><text x="274" y="108">░</text></g><g><text x="346" y="108">▒░</text><text x="354" y="108">▒</text></g><g><text x="90" y="124">░</text><text x="106" y="124">░</text><text x="122" y="124">░</text><text x="138" y="124">▒</text></g><g><text x="242" y="124">░░░░</text><text x="274" y="124">░</text></g><g><text x="122" y="140">░</text><text x="138" y="140">░</text></g><g><text x="466" y="12">▓</text><text x="482" y="12">▒</text></g><g><text x="442" y="28">▒▒</text><text x="458" y="28">▓</text><text x="474" y="28">▒▒</text></g><g><text x="538" y="28">▒</text><text x="546" y="28">▒▒</text></g><g><text x="610" y="28">▒</text><text x="618" y="28">▓▒</text></g><g><text x="402" y="44">▒</text><text x="418" y="44">▓░░</text><text x="458" y="44">▒</text><text x="474" y="44">▒░</text></g><g><text x="538" y="44">▒</text><text x="546" y="44">▒░</text></g><g><text x="610" y="44">▒</text><text x="618" y="44">▒░</text></g><g><text x="682" y="44">░</text><text x="698" y="44">▓</text></g><g><text x="402" y="60">░</text><text x="418" y="60">▓▓</text><text x="458" y="60">░</text><text x="474" y="60">▒</text></g><g><text x="538" y="60">░</text><text x="546" y="60">▒</text></g><g><text x="610" y="60">░</text><text x="618" y="60">▒░</text></g><g><text x="418" y="76">▒▒</text><text x="458" y="76">░</text><text x="474" y="76">░</text></g><g><text x="522" y="76">▓░</text><text x="530" y="76">▒</text><text x="538" y="76">░</text></g><g><text x="594" y="76">▓░</text><text x="602" y="76">▒</text><text x="610" y="76">░</text></g><g><text x="674" y="76">▒</text><text x="682" y="76">▒</text></g><g><text x="738" y="76">▒</text><text x="746" y="76">▒</text></g><g><text x="418" y="92">▒░</text><text x="434" y="92">░</text></g><g><text x="474" y="92">░░▒░░▒░░</text><text x="490" y="92">▒░</text><text x="506" y="92">▒░</text><text x="562" y="92">▒░</text><text x="578" y="92">▒░</text><text x="634" y="92">▒</text><text x="650" y="92">▓░▒</text><text x="682" y="92">▒▓▒</text><text x="714" y="92">▒</text><text x="746" y="92">░</text></g><g><text x="490" y="108">░</text><text x="506" y="108">▒░</text><text x="522" y="108">▒</text></g><g><text x="562" y="108">░</text><text x="578" y="108">▒░</text><text x="594" y="108">▒░</text><text x="634" y="108">░</text><text x="650" y="108">▒░░</text><text x="682" y="108">░▒░</text><text x="746" y="108">░</text></g><g><text x="490" y="124">░</text><text x="506" y="124">░</text><text x="522" y="124">▒</text></g><g><text x="562" y="124">░</text><text x="578" y="124">░</text><text x="594" y="124">▒</text></g><g><text x="634" y="124">░</text><text x="650" y="124">░</text></g><g><text x="506" y="140">░</text><text x="522" y="140">░</text></g><g><text x="578" y="140">░</text><text x="594" y="140">░</text></g></svg>